<?xml version="1.0" encoding="UTF-8" standalone="no"?>
<!-- Created with Inkscape (http://www.inkscape.org/) -->

<svg
   xmlns:dc="http://purl.org/dc/elements/1.1/"
   xmlns:cc="http://creativecommons.org/ns#"
   xmlns:rdf="http://www.w3.org/1999/02/22-rdf-syntax-ns#"
   xmlns:svg="http://www.w3.org/2000/svg"
   xmlns="http://www.w3.org/2000/svg"
   xmlns:sodipodi="http://sodipodi.sourceforge.net/DTD/sodipodi-0.dtd"
   xmlns:inkscape="http://www.inkscape.org/namespaces/inkscape"
   width="744.09448819"
   height="1052.3622047"
   id="svg3640"
   version="1.1"
   inkscape:version="0.48.4 r9939"
   sodipodi:docname="wasmuth_lab_logo.svg"
   inkscape:export-filename="/home/micand/inbox/2013.08/wasmuth_lab_logo.png"
   inkscape:export-xdpi="33.333332"
   inkscape:export-ydpi="33.333332">
  <defs
     id="defs3642">
    <clipPath
       clipPathUnits="userSpaceOnUse"
       id="clipPath614">
      <path
         inkscape:connector-curvature="0"
         d="M 0,600 600,600 600,0 0,0 0,600 z"
         id="path616" />
    </clipPath>
  </defs>
  <sodipodi:namedview
     id="base"
     pagecolor="#ffffff"
     bordercolor="#666666"
     borderopacity="1.0"
     inkscape:pageopacity="0.0"
     inkscape:pageshadow="2"
     inkscape:zoom="2.8"
     inkscape:cx="328.74768"
     inkscape:cy="609.57616"
     inkscape:document-units="px"
     inkscape:current-layer="layer1"
     showgrid="false"
     inkscape:window-width="1276"
     inkscape:window-height="967"
     inkscape:window-x="0"
     inkscape:window-y="36"
     inkscape:window-maximized="0"
     showguides="false"
     inkscape:guide-bbox="true"
     guidetolerance="1">
    <sodipodi:guide
       orientation="0,1"
       position="342.56798,684.12581"
       id="guide4547" />
    <sodipodi:guide
       orientation="0,1"
       position="309.10668,671.62517"
       id="guide4549" />
    <sodipodi:guide
       orientation="1,0"
       position="257.85714,612.85714"
       id="guide4690" />
    <sodipodi:guide
       orientation="1,0"
       position="379.28571,617.85714"
       id="guide4836" />
  </sodipodi:namedview>
  <metadata
     id="metadata3645">
    <rdf:RDF>
      <cc:Work
         rdf:about="">
        <dc:format>image/svg+xml</dc:format>
        <dc:type
           rdf:resource="http://purl.org/dc/dcmitype/StillImage" />
        <dc:title></dc:title>
      </cc:Work>
    </rdf:RDF>
  </metadata>
  <g
     inkscape:label="Layer 1"
     inkscape:groupmode="layer"
     id="layer1">
    <g
       id="g3755"
       transform="matrix(0,1,-1,0,716.29237,79.692221)"
       inkscape:export-filename="/home/micand/inbox/2013.08/wasmuth_lab_logo.png"
       inkscape:export-xdpi="33.333332"
       inkscape:export-ydpi="33.333332">
      <g
         id="g610"
         transform="matrix(1.25,0,0,-1.25,166.23649,514.81582)">
        <g
           clip-path="url(#clipPath614)"
           id="g612">
          <g
             transform="translate(97.5405,129.5508)"
             id="g618">
            <path
               id="path620"
               style="fill:none;stroke:#4f4f4f;stroke-width:0.72500002;stroke-linecap:butt;stroke-linejoin:miter;stroke-miterlimit:10;stroke-opacity:1;stroke-dasharray:none"
               d="M 0,0 4.952,2.025"
               inkscape:connector-curvature="0" />
          </g>
          <g
             transform="translate(98.2651,125.5703)"
             id="g622">
            <path
               id="path624"
               style="fill:none;stroke:#4f4f4f;stroke-width:0.72500002;stroke-linecap:butt;stroke-linejoin:miter;stroke-miterlimit:10;stroke-opacity:1;stroke-dasharray:none"
               d="M 0,0 4.952,2.025"
               inkscape:connector-curvature="0" />
          </g>
          <g
             transform="translate(97.5405,120.9258)"
             id="g626">
            <path
               id="path628"
               style="fill:none;stroke:#4f4f4f;stroke-width:0.72500002;stroke-linecap:butt;stroke-linejoin:miter;stroke-miterlimit:10;stroke-opacity:1;stroke-dasharray:none"
               d="M 0,0 4.952,2.025"
               inkscape:connector-curvature="0" />
          </g>
          <g
             transform="translate(98.1118,106.8535)"
             id="g630">
            <path
               id="path632"
               style="fill:none;stroke:#4f4f4f;stroke-width:0.72500002;stroke-linecap:butt;stroke-linejoin:miter;stroke-miterlimit:10;stroke-opacity:1;stroke-dasharray:none"
               d="M 0,0 4.953,2.027"
               inkscape:connector-curvature="0" />
          </g>
          <g
             transform="translate(98.2651,102.4082)"
             id="g634">
            <path
               id="path636"
               style="fill:none;stroke:#4f4f4f;stroke-width:0.72500002;stroke-linecap:butt;stroke-linejoin:miter;stroke-miterlimit:10;stroke-opacity:1;stroke-dasharray:none"
               d="M 0,0 4.952,2.025"
               inkscape:connector-curvature="0" />
          </g>
          <g
             transform="translate(98.4863,97.4668)"
             id="g638">
            <path
               id="path640"
               style="fill:none;stroke:#4f4f4f;stroke-width:0.72500002;stroke-linecap:butt;stroke-linejoin:miter;stroke-miterlimit:10;stroke-opacity:1;stroke-dasharray:none"
               d="M 0,0 5.315,2.225"
               inkscape:connector-curvature="0" />
          </g>
          <g
             transform="translate(98.687,93.0742)"
             id="g642">
            <path
               id="path644"
               style="fill:none;stroke:#4f4f4f;stroke-width:0.72500002;stroke-linecap:butt;stroke-linejoin:miter;stroke-miterlimit:10;stroke-opacity:1;stroke-dasharray:none"
               d="M 0,0 4.952,2.025"
               inkscape:connector-curvature="0" />
          </g>
          <g
             transform="translate(98.6841,142.6621)"
             id="g646">
            <path
               id="path648"
               style="fill:#4f4f4f;fill-opacity:1;fill-rule:nonzero;stroke:none"
               d="m 0,0 c 1.705,-2.057 3.071,-4.386 4.207,-6.84 1.098,-2.469 1.928,-5.116 2.147,-7.923 l 0.034,-0.526 0.017,-0.537 c 0.011,-0.325 0.012,-0.66 -0.011,-1.034 -0.027,-0.73 -0.108,-1.41 -0.204,-2.111 -0.213,-1.384 -0.542,-2.742 -0.961,-4.05 -0.875,-2.606 -1.96,-5.055 -2.969,-7.452 -1.016,-2.395 -1.838,-4.799 -2.273,-7.255 -0.448,-2.466 -0.319,-4.931 0.189,-7.466 2.2089488,-7.912181 3.2925815,-10.897609 1.007,-7.984 -1.183,2.399 -2.248,4.883 -2.967,7.519 -0.362,1.317 -0.648,2.671 -0.792,4.073 -0.128,1.401 -0.082,2.829 0.083,4.214 0.305,2.798 1.243,5.436 2.232,7.932 2.043,4.953 4.471,9.565 4.424,14.588 C 4.153,-12.359 3.66,-9.81 2.907,-7.327 2.168,-4.832 1.165,-2.392 0,0"
               inkscape:connector-curvature="0"
               sodipodi:nodetypes="ccccccccccccccccccc" />
          </g>
          <g
             transform="translate(103.0786,141.8125)"
             id="g650">
            <path
               id="path652"
               style="fill:#4f4f4f;fill-opacity:1;fill-rule:nonzero;stroke:none"
               d="m 0,0 c -1.3,-2.357 -2.432,-4.777 -3.279,-7.269 -0.859,-2.476 -1.439,-5.041 -1.468,-7.547 -0.014,-2.5 0.587,-4.955 1.562,-7.335 0.92,-2.405 2.2,-4.736 3.308,-7.229 1.1,-2.484 2.148,-5.132 2.508,-7.976 0.189,-1.41 0.242,-2.858 0.098,-4.291 -0.162,-1.427 -0.483,-2.795 -0.886,-4.121 -0.804,-2.654 -1.975,-5.13 -3.269,-7.509 -0.5151581,0.107682 -1.0181131,-0.415653 -1.113,0.529 0.997,2.462 1.852,4.973 2.437,7.498 0.589,2.546 0.749,5.025 0.261,7.5 -0.479,2.463 -1.395,4.861 -2.515,7.242 -1.111,2.384 -2.319,4.813 -3.295,7.426 -0.929,2.614 -1.552,5.499 -1.284,8.371 0.243,2.857 1.173,5.523 2.378,7.98 C -3.312,-4.291 -1.823,-1.997 0,0"
               inkscape:connector-curvature="0"
               sodipodi:nodetypes="ccccccccccccccccc" />
          </g>
        </g>
      </g>
    </g>
    <path
       style="fill:#565656;fill-opacity:1;stroke:none"
       d="m 277.93375,377.45328 c -3.91763,-0.075 -7.3085,-0.93647 -10.93782,-2.59375 -4.1478,-1.89403 -6.41633,-3.35628 -7.93398,-4.66858 -1.51764,-1.3123 -0.077,-0.70856 0.86454,-0.67533 0.47824,0.0169 8.73653,10.01381 33.05119,2.43766 9.02041,-2.81065 16.03155,-2.5584 21.30928,-1.15625 l 0,3.0625 c -4.92454,-1.11254 -10.80697,-1.54309 -16.8138,0.125 -8.56823,2.37938 -14.50246,3.56516 -19.53941,3.46875 z"
       id="path4844"
       inkscape:connector-curvature="0"
       sodipodi:nodetypes="sssssccss"
       inkscape:export-filename="/home/micand/inbox/2013.08/wasmuth_lab_logo.png"
       inkscape:export-xdpi="33.333332"
       inkscape:export-ydpi="33.333332" />
    <text
       xml:space="preserve"
       style="font-size:20.40081023999999843px;font-style:normal;font-weight:normal;line-height:125%;letter-spacing:0px;word-spacing:0px;fill:#00adeb;fill-opacity:1;stroke:none;font-family:Sans"
       x="258.79349"
       y="363.89819"
       id="text3019"
       sodipodi:linespacing="125%"
       inkscape:export-filename="/home/micand/inbox/2013.08/wasmuth_lab_logo.png"
       inkscape:export-xdpi="33.333332"
       inkscape:export-ydpi="33.333332"><tspan
         sodipodi:role="line"
         id="tspan3021"
         x="258.79349"
         y="363.89819"
         style="font-style:normal;font-variant:normal;font-weight:bold;font-stretch:normal;font-family:Raleway;-inkscape-font-specification:Raleway Bold;fill:#00adeb;fill-opacity:1">wasmuth<tspan
   style="fill:#565656;fill-opacity:1"
   id="tspan3949">lab</tspan></tspan></text>
  </g>
</svg>
